# xmcd CD database file
#
# Track frame offsets:
#	150
#	14584
#	26755
#	38662
#	52435
#	66847
#	81647
#	95062
#	108054
#	123725
#	135912
#	149840
#	162634
#	173787
#	187777
#	200652
#	214152
#	228784
#
# Disc length: 3239 seconds
#
# Revision: 0
# Processed by: cddbd v1.5.1PL0 Copyright (c) Steve Scherf et al.
# Submitted via: CDex 1.51
#
DISCID=100ca512
DTITLE=Duke Ellington and his Orchestra - 1941 - 1951 [CD1)
DYEAR=1900
DGENRE=Jazz
TTITLE0=perdido
TTITLE1=the c jam blues
TTITLE2=blue skies
TTITLE3=magenta haze
TTITLE4=things ain´t what they used to be
TTITLE5=i´m beginning to see the light
TTITLE6=jump for joy
TTITLE7=main stream
TTITLE8=what am i here for
TTITLE9=jonny come lately
TTITLE10=do nothing´till you hear from me
TTITLE11=snibor
TTITLE12=park at 106th
TTITLE13=in a sentimental mood
TTITLE14=caravan
TTITLE15=creole love call
TTITLE16=great times
TTITLE17=brown betty
EXTD=
EXTT0=
EXTT1=
EXTT2=
EXTT3=
EXTT4=
EXTT5=
EXTT6=
EXTT7=
EXTT8=
EXTT9=
EXTT10=
EXTT11=
EXTT12=
EXTT13=
EXTT14=
EXTT15=
EXTT16=
EXTT17=
PLAYORDER=
